<?xml version="1.0" standalone="no"?>
<!DOCTYPE svg PUBLIC "-//W3C//DTD SVG 1.1//EN" "http://www.w3.org/Graphics/SVG/1.1/DTD/svg11.dtd" >
<!--
2013-9-30: Created.
-->
<svg>
<metadata>
Created by iconfont
</metadata>
<defs>

<font id="iconfont" horiz-adv-x="1024" >
  <font-face
    font-family="iconfont"
    font-weight="500"
    font-stretch="normal"
    units-per-em="1024"
    ascent="896"
    descent="-128"
  />
    <missing-glyph />
    
    <glyph glyph-name="x" unicode="x" horiz-adv-x="1001"
d="M281 543q-27 -1 -53 -1h-83q-18 0 -36.5 -6t-32.5 -18.5t-23 -32t-9 -45.5v-76h912v41q0 16 -0.5 30t-0.5 18q0 13 -5 29t-17 29.5t-31.5 22.5t-49.5 9h-133v-97h-438v97zM955 310v-52q0 -23 0.5 -52t0.5 -58t-10.5 -47.5t-26 -30t-33 -16t-31.5 -4.5q-14 -1 -29.5 -0.5
t-29.5 0.5h-32l-45 128h-439l-44 -128h-29h-34q-20 0 -45 1q-25 0 -41 9.5t-25.5 23t-13.5 29.5t-4 30v167h911zM163 247q-12 0 -21 -8.5t-9 -21.5t9 -21.5t21 -8.5q13 0 22 8.5t9 21.5t-9 21.5t-22 8.5zM316 123q-8 -26 -14 -48q-5 -19 -10.5 -37t-7.5 -25t-3 -15t1 -14.5
t9.5 -10.5t21.5 -4h37h67h81h80h64h36q23 0 34 12t2 38q-5 13 -9.5 30.5t-9.5 34.5q-5 19 -11 39h-368zM336 498v228q0 11 2.5 23t10 21.5t20.5 15.5t34 6h188q31 0 51.5 -14.5t20.5 -52.5v-227h-327z" />
    

    
    <glyph glyph-name="blog" unicode="&#58942;" d="M749.431597 372.04573700000003c-38.386262 7.444553-19.729344 28.103058-19.729344 28.103058s37.561477 61.910025-7.433296 106.914008c-55.758931 55.743582-191.256952-7.092535-191.256952-7.092535-51.743478-16.057721-38.034245 7.327896-30.714536 47.131437 0 46.891983-16.063861 126.257565-153.919579 79.380932-137.723711-47.131437-255.969812-212.265428-255.969812-212.265428C8.179286 304.489108 19.066241 219.67953699999998 19.066241 219.67953699999998 39.60502 32.458504999999946 238.542908-18.932954999999993 393.274992-31.09802000000002c162.789597-12.768815 382.493437 56.110949 449.120904 197.617823C909.012106 308.26203799999996 787.948843 364.36480100000006 749.431597 372.04573700000003L749.431597 372.04573700000003zM405.327492 21.700486999999953c-161.606655-7.54893-292.247041 73.477478-292.247041 181.323719 0 107.953687 130.640386 194.534602 292.247041 201.982224 161.714102 7.444553 292.608268-59.179844 292.608268-166.917614C697.93576 130.25997199999995 567.04057 29.040661999999998 405.327492 21.700486999999953L405.327492 21.700486999999953zM373.086184 333.89483499999994C210.544227 314.87055 229.327012 162.62714700000004 229.327012 162.62714700000004s-1.663896-48.203862 43.578518-72.758094c95.107101-51.513234 193.032388-20.323884 242.517429 43.561122C564.919257 197.33871599999998 535.863501 352.788138 373.086184 333.89483499999994L373.086184 333.89483499999994zM332.091514 120.21622100000002c-30.353308-3.551896-54.800094 13.936407-54.800094 39.333844 0 25.27464 21.721721 51.743478 52.084239 54.91675 34.860972 3.313465 57.542554-16.768919 57.542554-42.162262C386.918213 147.02581999999995 362.322026 123.65146000000004 332.091514 120.21622100000002L332.091514 120.21622100000002zM427.897533 201.83819400000004c-10.273994-7.680936-22.929222-6.620791-28.351722 2.593058-5.664 8.986675-3.540639 23.388686 6.856152 30.957059 12.048407 8.962116 24.569582 6.387477 29.994128-2.611477C441.84008 223.57833400000004 437.947424 209.75756 427.897533 201.83819400000004L427.897533 201.83819400000004zM828.579215 437.962006c13.100366 0 24.234961 9.685593 26.104541 22.322401 0.236384 0.947582 0.352017 1.765203 0.352017 2.834558 19.85214 178.470741-146.247852 147.756205-146.247852 147.756205-14.746866 0-26.568099-11.926634-26.568099-26.806529 0-14.647605 11.821233-26.574239 26.568099-26.574239 119.303176 26.331715 92.983741-92.968391 92.983741-92.968391C801.766546 449.774029 813.791417 437.962006 828.579215 437.962006L828.579215 437.962006zM809.217239 755.196137c-57.419757 13.452383-116.486014-0.997724-133.030829-4.167926-1.281179-0.122797-2.476401-2.75781-3.656273-2.996241-0.576121-0.116657-0.929162-1.422396-0.929162-1.422396-16.308431-4.616134-28.244274-20.073174-28.244274-37.917588 0-21.262256 17.240663-38.930661 38.739303-38.930661 0 0 20.912285 2.715855 35.085076 8.260128 14.053064 5.658883 133.004223 4.167926 192.084807-95.04161 32.235169-72.405053 14.172791-120.889301 11.917424-128.677685 0 0-7.662517-18.826787-7.662517-37.343513 0-21.381983 17.246803-29.106922 38.604226-29.106922 17.856693 0 32.856315 7.91118 37.236066 38.341237l0.236384 0C1053.015847 639.1910760000001 911.97867 731.221096 809.217239 755.196137L809.217239 755.196137z"  horiz-adv-x="1024" />

    
    <glyph glyph-name="play" unicode="&#58917;" d="M511.126097 832.225511c-246.704798 0-446.706925-200.002127-446.706925-446.705901 0-246.709915 200.002127-446.712041 446.706925-446.712041 246.708891 0 446.712041 200.002127 446.712041 446.712041C957.838138 632.224408 757.834988 832.225511 511.126097 832.225511L511.126097 832.225511zM511.126097-20.582525000000032c-224.285183 0-406.097018 181.811836-406.097018 406.102135 0 224.284159 181.811836 406.098042 406.097018 406.098042 224.289276 0 406.102135-181.812859 406.102135-406.098042C917.229255 161.22931100000005 735.415372-20.582525000000032 511.126097-20.582525000000032L511.126097-20.582525000000032zM511.126097-20.582525000000032M389.298424 182.46905400000003l346.238722 203.051579L389.298424 588.5660720000001 389.298424 182.46905400000003zM389.298424 182.46905400000003"  horiz-adv-x="1024" />

    
    <glyph glyph-name="cry" unicode="&#59389;" d="M312.33041698 383.1714955c4.97102697-4.97102697 11.59906291-7.45654045 17.39859438-7.45654044s12.42756741 2.48551348 17.39859437 7.45654044l74.56540444 74.56540445c9.94205392 9.94205392 9.94205392 25.68363931 0 34.79718874l-74.56540444 74.56540445c-9.94205392 9.94205392-25.68363931 9.94205392-34.79718875 0-9.94205392-9.94205392-9.94205392-25.68363931 0-34.79718875l57.16681008-57.16681008-57.16681008-57.16681006C302.38836306 408.02663031 302.38836306 393.11354943 312.33041698 383.1714955zM711.66958302 567.09949314c-9.94205392 9.94205392-25.68363931 9.94205392-34.79718875 0l-74.56540444-74.56540445c-9.94205392-9.94205392-9.94205392-25.68363931 0-34.79718874l74.56540444-74.56540445c4.97102697-4.97102697 11.59906291-7.45654045 17.39859437-7.45654044s12.42756741 2.48551348 17.39859438 7.45654044c9.94205392 9.94205392 9.94205392 25.68363931 0 34.79718875L654.50277294 475.13549431l57.16681008 57.16681008C721.61163694 542.24435831 721.61163694 557.1574392 711.66958302 567.09949314zM512 301.14955061c-82.02194489 0-157.41585383-41.42522469-202.1550965-111.01960216-7.45654045-11.59906291-4.14252247-27.3406483 7.45654045-33.96868426 11.59906291-7.45654045 27.3406483-4.14252247 33.96868424 7.45654045C386.89582143 218.29910124000003 446.54814498 251.43928098000004 512 251.43928098000004s125.10417857-33.14017975 160.72987181-87.82147634c4.97102697-7.45654045 12.42756741-11.59906291 20.71261234-11.59906291 4.97102697 0 9.11354943 1.65700898 13.2560719 4.14252246 11.59906291 7.45654045 14.91308089 22.36962133 7.45654045 33.96868426C669.41585383 259.72432591999996 594.02194489 301.14955061 512 301.14955061zM512 864.53260642c-265.12143803 0-480.53260642-215.41116839-480.53260642-480.53260642s215.41116839-480.53260642 480.53260642-480.53260642 480.53260642 215.41116839 480.53260642 480.53260642S777.12143803 864.53260642 512 864.53260642zM512-46.822336800000016c-237.78078973 0-430.8223368 193.04154706-430.8223368 430.8223368s193.04154706 430.8223368 430.8223368 430.8223368 430.8223368-193.04154706 430.8223368-430.8223368S749.78078973-46.822336800000016 512-46.822336800000016z"  horiz-adv-x="1024" />

    
    <glyph glyph-name="movie2" unicode="&#58881;" d="M904.148-12.090000000000032h-190.817c141.534 74.484 238.304 225.042 238.304 398.655 0 247.606-196.832 448.332-439.637 448.332s-439.637-200.724-439.637-448.332c0-241.762 187.651-438.83 422.524-447.997 1.263-0.201 2.548-0.334 3.867-0.334h405.398c13.66 0 24.837 11.178 24.837 24.837s-11.179 24.837-24.838 24.837zM739.334 477.223c50.07 0 90.659-40.59 90.659-90.659s-40.59-90.659-90.659-90.659-90.659 40.59-90.659 90.659 40.59 90.659 90.659 90.659zM512 696.009c50.07 0 90.659-40.59 90.659-90.659s-40.59-90.659-90.659-90.659-90.659 40.59-90.659 90.659c0 50.07 40.59 90.659 90.659 90.659zM288.797 297.35400000000004c-50.07 0-90.659 40.59-90.659 90.659s40.59 90.659 90.659 90.659c50.07 0 90.659-40.59 90.659-90.659 0-50.07-40.591-90.659-90.659-90.659zM419.813 147.159c0 50.07 40.59 90.659 90.659 90.659s90.659-40.59 90.659-90.659-40.59-90.659-90.659-90.659-90.659 40.59-90.659 90.659z"  horiz-adv-x="1024" />

    
    <glyph glyph-name="eye1" unicode="&#58941;" d="M737 834C365.75 834 62 496.5 62 384c0-150.00000029 303.75-450 675-450s675 337.5 675 450S1108.25 834 737 834zM737 8.999999709999997C406.99999971 8.999999709999997 136.99999971 309.00000029 136.99999971 384 136.99999971 458.99999971 406.99999971 759.00000029 737 759.00000029s600.00000029-299.99999971 600.00000029-375.00000029S1067.00000029 8.999999709999997 737 8.999999709999997zM737 140.25000029c-135 0-243.74999971 108.74999971-243.74999971 243.74999971s108.74999971 243.74999971 243.74999971 243.74999971 243.74999971-108.74999971 243.74999971-243.74999971S872 140.25000029 737 140.25000029zM737 552.75c-93.75000029 0-168.75-74.99999971-168.75-168.75s74.99999971-168.75 168.75-168.75 168.75 74.99999971 168.75 168.75S830.75000029 552.75 737 552.75z"  horiz-adv-x="1536" />

    
    <glyph glyph-name="eye2" unicode="&#58896;" d="M1554.6846333 384.24105146c0-143.69704981-307.76532979-450.24105146-746.34326192-450.24105146C380.92555039-66 62 235.49987695000004 62 384.24105146 62 532.9614293 382.30379844 834 808.34137138 834 1250.36775987 834 1554.78672529 532.9614293 1554.6846333 384.24105146L1554.6846333 384.24105146zM808.99930039 751.87416592c-198.6341458 0-359.65855723-164.71108477-359.65855723-367.87700128 0-203.16780791 161.0225209-367.87700127 359.65855723-367.87700126 198.69464443 0 359.72283779 164.71108477 359.72283779 367.87700127S1007.69394482 751.87416592 808.99930039 751.87416592L808.99930039 751.87416592zM808.34137138 618.8590139600001c-126.49446826 0-229.04257852-104.86976924-229.04257851-234.24740419 0-129.36440039 102.54811026-234.25307578 229.04257851-234.25307579 126.49635878 0 229.00098516 104.88867539 229.00098516 234.25307579C1037.34235654 513.98924473 934.8377293 618.8590139600001 808.34137138 618.8590139600001L808.34137138 618.8590139600001z"  horiz-adv-x="1699" />

    
    <glyph glyph-name="share" unicode="&#58890;" d="M746.2912 657.066667l-97.8432 0C639.0784 657.066667 631.466667 664.644267 631.466667 674.133333c0 9.4208 7.7824 17.066667 16.981333 17.066667L802.133333 691.2l0-17.066667 0-136.618667C802.133333 528.1450669999999 794.555733 520.5333330000001 785.066667 520.5333330000001c-9.4208 0-17.066667 7.7824-17.066667 16.981333l0 92.9792L582.263467 444.757333c-6.621867-6.621867-17.339733-6.638933-24.064 0.085333-6.673067 6.673067-6.690133 17.442133-0.085333 24.064L746.2912 657.066667 746.2912 657.066667 746.2912 657.066667 746.2912 657.066667 746.2912 657.066667 746.2912 657.066667 746.2912 657.066667 746.2912 657.066667 746.2912 657.066667zM477.866667 691.2L255.829333 691.2C218.197333 691.2 187.733333 660.718933 187.733333 623.104l0-478.208c0-37.632 30.481067-68.096 68.096-68.096l478.208 0c37.632 0 68.096 30.481067 68.096 68.096L802.133333 366.93333299999995l-34.133333 0 0-221.832533C768 126.22506699999997 752.827733 110.93333299999995 733.832533 110.93333299999995L256.034133 110.93333299999995C237.1584 110.93333299999995 221.866667 126.10559999999998 221.866667 145.10080000000005L221.866667 622.8992000000001C221.866667 641.774933 237.038933 657.066667 256.034133 657.066667L477.866667 657.066667 477.866667 691.2 477.866667 691.2 477.866667 691.2 477.866667 691.2 477.866667 691.2 477.866667 691.2 477.866667 691.2 477.866667 691.2 477.866667 691.2z"  horiz-adv-x="1024" />

    
    <glyph glyph-name="purse" unicode="&#58952;" d="M64.04413 423.405475l0-382.373711c0-21.036106 16.962324-38.058804 37.934984-38.058804l41.620933 0L143.600047 461.340459l-41.620933 0C81.006454 461.340459 64.04413 444.376089 64.04413 423.405475zM895.980813 512.72271L817.0266 642.4421199999999c-11.287067 19.1215-23.747867 30.039153-42.469254 25.289989L112.650151 494.155842 895.980813 512.72271zM562.860876 751.374088c-6.661723 9.838066-21.74321 17.733896-34.418904 11.350512L67.806827 516.391263l549.243229 164.91091L562.860876 751.374088zM921.857157 461.340459l-723.528648 0 0-458.368522 723.528648 0c21.034059 0 37.997406 16.962324 37.997406 37.996382L959.854563 423.405475C959.916984 444.376089 942.953637 461.340459 921.857157 461.340459zM803.671431 131.51966200000004c0-5.243421-4.317329-9.498328-9.56075-9.498328L321.724911 122.02133400000002c-5.304819 0-9.576099 4.254907-9.576099 9.498328l0 15.113209c0 5.241374 4.27128 9.56075 9.576099 9.56075l472.448192 0c5.243421 0 9.56075-4.319375 9.56075-9.56075l0-15.113209L803.671431 131.51966200000004zM803.671431 295.040922c0-5.243421-4.317329-9.498328-9.56075-9.498328L321.724911 285.542594c-5.304819 0-9.576099 4.254907-9.576099 9.498328l0 15.173584c0 5.245468 4.27128 9.500375 9.576099 9.500375l472.448192 0c5.243421 0 9.56075-4.254907 9.56075-9.500375l0-15.173584L803.671431 295.040922z"  horiz-adv-x="1024" />

    
    <glyph glyph-name="weblog" unicode="&#59078;" d="M466.432 368.12800000000004c-55.296 14.336-117.76-13.312-141.312-61.44-24.576-49.664-1.024-104.448 54.784-122.368 57.856-18.432 125.952 9.728 149.504 63.488 23.04 52.224-6.144 105.984-62.976 120.32zM688.128 394.24c-9.728 3.072-16.384 5.12-11.264 17.92 11.264 28.16 12.288 52.224 0 69.632-22.528 32.256-84.992 30.72-156.16 1.024 0 0-22.528-9.728-16.896 7.68 10.752 35.328 9.216 64.512-7.68 81.408-38.912 38.4-141.824-1.536-229.888-89.6-66.048-65.536-104.448-135.168-104.448-195.584 0-115.712 148.48-185.856 293.888-185.856 190.464 0 317.44 110.08 317.44 198.144 0 52.736-45.056 82.944-84.992 95.232z m-233.472-242.176c-116.224-11.264-216.064 40.96-223.744 116.736S311.296 415.232 427.52 427.008c116.224 11.264 216.064-40.96 223.744-116.736 7.68-76.288-80.384-146.944-196.608-158.208zM411.136 288.256c-17.92 7.68-40.96 0-52.224-17.408-11.264-17.408-6.144-37.888 11.776-46.08 17.92-8.192 41.984-0.512 53.248 17.408 11.264 17.92 5.632 38.4-12.8 46.08zM455.68 306.688c-6.656 2.56-15.36-0.512-19.456-7.168-4.096-6.656-1.536-14.336 5.12-17.408 7.168-3.072 15.872 0.512 19.968 7.168 3.584 7.168 1.024 14.848-5.632 17.408zM427.52 426.496c-115.712-11.264-203.776-82.432-196.608-158.208 7.68-75.776 107.52-128 223.744-116.736 116.224 11.264 203.776 82.432 196.608 158.208-7.68 76.288-107.52 128.512-223.744 116.736z m101.888-178.688c-23.552-53.248-91.648-81.92-149.504-62.976-55.808 17.92-79.36 72.704-54.784 122.368 24.064 48.64 86.528 75.776 141.312 61.44 56.832-14.848 86.016-68.608 62.976-120.832zM512 896C229.376 896 0 666.624 0 384s229.376-512 512-512S1024 101.37599999999998 1024 384 794.624 896 512 896zM455.68 100.86400000000003c-145.408 0-293.888 70.144-293.888 185.856 0 60.416 38.4 130.048 104.448 196.096 88.064 88.064 190.976 128 229.888 89.6 16.896-16.896 18.944-46.592 7.68-81.408-5.632-17.92 16.896-7.68 16.896-8.192 71.168 29.696 133.632 31.744 156.16-1.024 12.288-17.408 10.752-41.472 0-69.632-5.12-12.8 1.536-14.848 11.264-17.92 39.936-12.288 84.992-42.496 84.992-95.232-0.512-87.552-126.976-198.144-317.44-198.144z m263.168 367.104c4.608 14.336 1.536 30.72-9.216 43.008-10.752 12.288-27.136 16.896-41.984 13.312-12.288-2.56-24.576 5.12-27.648 17.92-2.56 12.288 5.12 24.576 17.92 27.136 30.72 6.656 63.488-3.072 86.016-27.648 22.528-24.576 28.672-58.368 18.944-88.064-4.096-12.288-16.896-18.944-29.184-14.848-12.288 4.096-18.944 17.408-14.848 29.184zM853.504 424.96c-0.512 0-0.512 0 0 0-4.608-14.336-19.968-22.016-33.792-17.408-14.336 4.608-22.016 19.456-17.408 33.792 13.824 43.008 5.12 92.672-27.648 128.512-32.768 36.352-80.896 50.176-125.44 40.448-14.336-3.072-28.672 6.144-31.744 20.48-3.072 14.336 6.144 28.672 20.48 31.744 62.464 13.312 130.56-6.144 176.64-56.832s58.368-120.32 38.912-180.736zM733.696 439.296c12.288-4.096 25.088 2.56 29.184 14.848 9.728 29.696 3.584 63.488-18.944 88.064-22.528 24.576-55.296 34.304-86.016 27.648-12.288-2.56-20.48-14.848-17.92-27.136s14.848-20.48 27.648-17.92c14.848 3.072 31.232-1.536 41.984-13.312 10.752-12.288 13.824-28.672 9.216-43.008-4.096-12.288 2.56-25.6 14.848-29.184zM637.952 662.528c-14.336-3.072-23.552-17.408-20.48-31.744 3.072-14.336 17.408-23.552 31.744-20.48 44.544 9.216 92.672-4.608 125.44-40.448 32.768-36.352 41.472-85.504 27.648-128.512-4.608-14.336 3.072-29.184 17.408-33.792 13.824-4.608 29.184 3.072 33.792 17.408 19.456 60.928 7.168 130.048-38.912 180.736-46.08 50.688-114.176 70.144-176.64 56.832z"  horiz-adv-x="1024" />

    
    <glyph glyph-name="star-half" unicode="&#59117;" d="M452.089004 763.385657l-98.304934-200.876031-220.428341-32.242331c-75.150584-11.151991-90.173742-61.994959-36.954657-114.690112L255.458671 259.960962l-37.564547-221.332944c-12.534478-75.643817 31.30089-105.398492 97.068779-70.675666l196.536189 105.965404V814.457846h-0.179079c-21.409612-0.338714-42.719964-17.470907-59.231009-51.072189zM890.457006 529.868205l-220.427318 32.242332-98.32233 200.87603c-16.996093 34.594913-38.743396 51.41602-60.386322 51.073212h0.179079v-740.540089l0.093121 0.050142 197.257619-105.388259c67.63133-35.966143 109.585861-3.106758 97.070826 70.671573L768.349971 259.561873l158.419056 154.99098 0.644683 0.62524c54.471612 52.695153 36.941354 104.148012-36.956704 114.690112z"  horiz-adv-x="1024" />

    
    <glyph glyph-name="pic" unicode="&#58898;" d="M982.604 582.8140000000001c-25.725 60.822-62.549 115.442-109.449 162.34-46.899 46.9-101.519 83.724-162.34 109.45-62.982 26.64-129.874 40.146-198.815 40.146s-135.833-13.507-198.814-40.146c-60.822-25.725-115.442-62.55-162.34-109.45-46.9-46.899-83.724-101.519-109.45-162.34-26.64-62.982-40.146-129.873-40.146-198.814s13.507-135.833 40.146-198.815c25.725-60.821 62.55-115.441 109.45-162.34 46.899-46.899 101.519-83.724 162.34-109.449 62.982-26.64 129.873-40.147 198.814-40.147s135.833 13.506 198.815 40.147c60.821 25.725 115.441 62.549 162.34 109.449 46.899 46.899 83.724 101.519 109.449 162.34 26.64 62.982 40.146 129.873 40.146 198.815s-13.505 135.833-40.146 198.814zM503.726 719.114c121.605 0 220.55-97.474 220.55-217.316 0.007-119.85-98.943-217.315-220.55-217.315-121.604 0-220.548 97.5-220.548 217.315 0 119.808 98.943 217.316 220.548 217.316zM512-83.649c-138.123 0-262.446 60.196-348.129 155.726 35.709 110.896 141.197 191.476 265.489 191.476h165.255c124.293 0 229.793-80.598 265.509-191.482-85.685-95.527-210.004-155.721-348.125-155.721z"  horiz-adv-x="1024" />

    
    <glyph glyph-name="friends" unicode="&#58929;" d="M512.725315 895.99942a493.214057 493.214057 0 0 1-58.025183-3.336448 507.720353 507.720353 0 0 1-132.442481-33.654607S666.782176 518.835729 675.921142 505.635v362.657395c-10.29947 3.481511-20.744003 6.672896-31.333598 9.574155A507.720353 507.720353 0 0 1 512.725315 895.99942zM872.191324 748.035203a500.467205 500.467205 0 0 1-43.518887 38.441684 507.720353 507.720353 0 0 1-117.355933 69.920345s2.46607-484.07509 0-499.596827l257.341687 256.761436c-4.787078 9.719218-10.009344 19.293373-15.521736 29.012591A507.720353 507.720353 0 0 1 872.191324 748.035203zM985.050306 573.234338S644.587544 228.70981300000005 631.822003 219.86097299999994h362.657395c3.481511 10.29947 6.672896 20.744003 9.574155 31.333599a505.834534 505.834534 0 0 1 17.552618 131.862229 491.90849 491.90849 0 0 1-3.481511 58.025183 503.948716 503.948716 0 0 1-33.654606 132.44248zM480.521338 181.70941500000004L736.847585-75.92239800000004c9.719218 4.787078 19.293373 10.009344 29.012591 15.521736A507.720353 507.720353 0 0 1 979.537913 181.70941500000004s-484.510279-2.46607-499.016575 0zM348.078858 262.36442v-362.657395c10.29947-3.481511 20.744003-6.672896 31.333598-9.574155A507.720353 507.720353 0 0 1 701.30716-90.42869399999995S357.217824 249.598879 348.078858 262.36442zM311.813118 413.955211L55.051683 157.04871200000002c4.787078-9.864281 10.009344-19.438436 15.521736-29.012591a502.788212 502.788212 0 0 1 80.800068-105.750897 494.229498 494.229498 0 0 1 43.518887-38.296621 504.383905 504.383905 0 0 1 117.500996-69.920345s-2.611133 484.220153 0 499.596827zM19.366195 516.514722A507.720353 507.720353 0 0 1 1.813577 384.652493a493.214057 493.214057 0 0 1 3.481511-58.025183 500.177079 500.177079 0 0 1 33.654606-132.442481S378.977268 538.7093540000001 392.177997 547.8483209999999h-362.657395c-3.481511-10.154407-6.672896-20.744003-9.574155-31.333599zM255.818816 825.788948A507.720353 507.720353 0 0 1 41.850953 584.259123s484.220153 2.611133 499.74189 0L284.686345 841.310685c-9.719218-4.932141-19.438436-10.009344-29.012592-15.521737z"  horiz-adv-x="1024" />

    
    <glyph glyph-name="star-empty" unicode="&#58882;" d="M545.33791794 62.77519262999999l183.05148258-68.1209003c20.93623984-7.81202993 34.84165265 2.14049652 34.24793856 24.57664535l-5.43717279 206.69068543c-0.51559387 19.88942788 8.07763898 47.43464529 19.81130768 63.38681021l119.78966602 162.95894247c13.38981894 18.20202923 7.5620451 35.93533721-14.12415007 42.6068108l-186.17629504 57.43404272c-19.15509677 5.92151826-42.12246451 23.20172837-53.10617871 39.96634542L532.33870004 761.85811816c-12.24926257 18.70199973-28.37329211 18.70199973-40.62255551 1e-8l-111.04019192-169.58354344c-10.9993384-16.78024045-33.95108194-34.06044973-53.10617871-39.96634542L141.40910306 494.87418659c-21.74869117-6.71834537-27.57646499-24.32666052-14.12415006-42.622435l119.78966602-162.94331827c11.78054133-15.99903671 20.32690155-43.4348855 19.81130768-63.38681022l-5.43717279-206.69068542c-0.59371408-22.42052545 13.28045032-32.37305191 34.24793856-24.57664535l183.05148258 68.1209003c18.90511193 7.03082703 47.71587854 7.03082703 66.60536628 0z m-10.43687192-28.06081128c-12.15551816 4.53097705-33.56048007 4.53097705-45.73162243 0l-183.05148341-68.1209003c-40.85691614-15.20221042-75.74544141 9.82753362-74.60488503 53.43428375l5.43717278 206.67506122c0.34372925 13.31169873-6.17150391 34.21669098-13.99915722 44.87229931L103.16140552 434.5184436c-25.67032993 34.90414947-12.01490195 76.18291507 29.40447985 88.96339573l186.19191926 57.43404355c12.48362403 3.85914276 29.71696152 16.81148804 36.87278055 27.76395382L466.70202552 778.27900433c24.0454281 36.71654014 66.60536627 36.74778855 90.66641775 0l111.05581613-169.59916763c7.17144323-10.93684158 24.40478156-23.90481106 36.88840476-27.76395382L891.52020762 523.49746353c41.3568858-12.74923306 54.9966904-54.16861487 29.40448067-88.96339572l-119.78966601-162.95894248c-7.78078152-10.57748813-14.34288648-31.591849-13.99915723-44.84105089l5.43717279-206.70630964c1.14055637-43.62237432-33.77921731-68.60524576-74.60488504-53.41865955l-183.05148258 68.1209003z"  horiz-adv-x="1024" />

    
    <glyph glyph-name="movie1" unicode="&#58885;" d="M512-83.20000000000005C261.12-83.20000000000005 57.6 120.32000000000005 57.6 371.20000000000005S261.12 825.6 512 825.6 966.4 622.0799999999999 966.4 371.20000000000005 762.88-83.20000000000005 512-83.20000000000005z m0 870.4C282.88 787.2 96 600.3199999999999 96 371.20000000000005S282.88-44.799999999999955 512-44.799999999999955 928 142.08000000000004 928 371.20000000000005 741.12 787.2 512 787.2zM499.2 514.56c-55.04 0-99.84 44.8-99.84 99.84s44.8 99.84 99.84 99.84 99.84-44.8 99.84-99.84-44.8-99.84-99.84-99.84z m0 162.56c-34.56 0-61.44-28.16-61.44-61.44s28.16-61.44 61.44-61.44 61.44 28.16 61.44 61.44-26.88 61.44-61.44 61.44zM499.2 52.48000000000002c-55.04 0-99.84 44.8-99.84 99.84s44.8 99.84 99.84 99.84 99.84-44.8 99.84-99.84-44.8-99.84-99.84-99.84z m0 162.56c-34.56 0-61.44-28.16-61.44-61.44s28.16-61.44 61.44-61.44 61.44 28.16 61.44 61.44-26.88 61.44-61.44 61.44zM730.88 284.15999999999997c-55.04 0-99.84 44.8-99.84 99.84s44.8 99.84 99.84 99.84 99.84-44.8 99.84-99.84-44.8-99.84-99.84-99.84z m0 161.28c-34.56 0-61.44-28.16-61.44-61.44s28.16-61.44 61.44-61.44 61.44 28.16 61.44 61.44-28.16 61.44-61.44 61.44zM267.52 284.15999999999997c-55.04 0-99.84 44.8-99.84 99.84s44.8 99.84 99.84 99.84 99.84-44.8 99.84-99.84c1.28-55.04-44.8-99.84-99.84-99.84z m0 161.28c-34.56 0-61.44-28.16-61.44-61.44s28.16-61.44 61.44-61.44 61.44 28.16 61.44 61.44-26.88 61.44-61.44 61.44zM997.12-76.79999999999995H591.36c-10.24 0-19.2 8.96-19.2 19.2s8.96 19.2 19.2 19.2h404.48c10.24 0 19.2-8.96 19.2-19.2s-7.68-19.2-17.92-19.2z"  horiz-adv-x="1024" />

    
    <glyph glyph-name="star-gray" unicode="&#58883;" d="M949.31 434.886c-63.513-77.364-175.824-205.083-175.824-205.083 0 0 18.369-140.229 28.665-236.016 4.473-48.789-30.699-69.885-70.533-50.868-75.798 38.079-191.142 97.074-217.089 110.367-26.406-13.158-142.911-71.181-219.492-109.17-40.293-18.972-75.888 2.124-71.361 50.823 10.431 95.643 28.989 235.737 28.989 235.737 0 0-113.598 127.449-177.849 204.714-22.707 28.062-8.127 67.95 36.648 75.285 91.305 17.262 232.83 44.775 232.83 44.775 0 0 77.409 142.677 126.387 230.058 26.955 53.172 45.603 47.034 48.789 45.468 8.307-2.862 21.42-13.203 38.538-45.513 48.42-87.516 124.956-230.382 124.956-230.382 0 0 139.86-27.513 230.103-44.82C957.302 502.881 971.747 462.948 949.31 434.886L949.31 434.886z"  horiz-adv-x="1024" />

    
    <glyph glyph-name="link" unicode="&#58976;" d="M511.70041-128c-282.605411 0-511.700176 229.099762-511.700176 511.708171C0.000234 666.307585 229.094999 895.400351 511.70041 895.400351c282.60641 0 511.700176-229.092766 511.700176-511.69218 0-282.60741-229.093765-511.708171-511.700176-511.708171z m0 1008.777919c-274.525145 0-497.079742-222.543603-497.079742-497.068749 0-274.541136 222.555596-497.084739 497.079742-497.084739 274.527144 0 497.078743 222.543603 497.078743 497.084739 0 274.525145-222.552598 497.068749-497.078743 497.068749zM519.015124 332.94491500000004c16.439368-37.993738 9.723303-81.231403-21.329502-112.253227l-64.41026-62.426422c-20.308101-20.3091-46.91551-30.416178-73.492938-30.416178-26.577427 0-53.185836 10.106078-73.493937 30.416178-40.564232 40.58522-40.564232 106.365676 0 146.953895l62.972102 64.92096c30.861917 31.017825 77.912348 39.241007 117.466173 20.532969l-24.946383-24.978364a70.540668 70.540668 0 0 1-19.092813 2.878313c-19.25172 0-37.322132-7.482616-50.881187-21.043669l-63.099028-65.049885c-27.88766-27.88766-27.88766-73.5569 0.159906-101.604466 13.592036-13.592036 31.661448-21.04367 50.914168-21.04367 19.220738 0 37.29115 7.451634 50.882186 21.04367l64.603147 62.555346c18.004451 18.006449 23.697115 40.904033 18.419207 64.18739l25.329159 25.32716z m100.835916 159.650455c-6.262331 6.22935-16.379403 6.22935-22.642732 0L403.499809 297.413734a16.012618 16.012618 0 0 1 7.177794-26.787304 16.019614 16.019614 0 0 1 15.464938 4.143572l193.708499 195.181636a15.988632 15.988632 0 0 1 0 22.643732z m117.275284 116.539715a103.571314 103.571314 0 0 1-73.491938 30.414179c-26.608409 0-53.2478-10.106078-73.492938-30.414179l-64.410259-62.427422c-31.312653-31.33464-39.301972-79.085661-19.891345-118.906328l24.818458 24.785477a71.508101 71.508101 0 0 0 17.524731 71.318212l64.602148 62.555347a70.998399 70.998399 0 0 0 50.850205 21.107632c29.043982-0.023986 55.224642-17.507742 66.379106-44.325028 11.152465-26.817287 5.091017-57.708187-15.368995-78.323108l-64.602147-64.570166a71.430146 71.430146 0 0 0-50.882187-21.07665c-4.893133 0-9.210603-0.47872-13.910849 0.480718l-25.490064-25.489065c12.728542-5.276908 25.808878-6.938934 39.368932-6.938934 26.608409 0 53.184837 10.10408 73.492938 30.445161l64.441241 64.378278c40.605208 40.573227 40.634191 106.378669 0.062963 146.985876z"  horiz-adv-x="1024" />

    
    <glyph glyph-name="qqspace" unicode="&#59091;" d="M0 384a512 512 0 1 1 1024 0A512 512 0 1 1 0 384zM675.5 268.5l-196 15v1h1c4.07 4.983 10.521 7.354 16 11 12.279 8.173 24.441 16.593 37 25 32.779 21.943 64.879 46.359 97 69 8.688 6.123 28.43 17.154 34 25 2.912 4.101 4.984 11.664 2 16-2.568 7.41-13.54 5-23 5h-66c-6.42-3.923-41.57-1-52-1l-129-2c-10.553-0.019-46.546 2.979-53-1 13.14 0.131 26.634-2.361 38-5 15.244-3.539 30.904-2.732 45-6l16-1c23.691-5.543 51.237-5.503 75-11 15.25-3.528 30.902-2.742 45-6 6.826-1.577 14.427 0.524 19-3h-2c-13.136-11.763-38.102-20.281-54-30-39.758-24.304-81.584-46.099-121-71-8.492-5.365-23.453-13.862-28-23-3.053-6.135-1.42-20.368 4-23h16l279 13v3c8.914 0.235 25.213 1.042 31-3l-30-1 30-174h-2c-9.291 9.05-35.19 18.343-48 25-32.75 17.019-65.816 33.78-99 51-11.486 5.961-23.008 11.784-35 18-2.514 1.303-8.249 7.001-12 6-1.5-0.4-5.297-4.115-7-5-10.6-5.506-20.986-10.775-31-16-35.783-18.673-71.217-35.408-107-54-14.444-7.504-32.19-20.383-48-25l37 213c-10.693 7.045-18.961 18.149-28 27-16.179 15.843-32.912 33.332-51 47l-21 22c-14.288 10.803-26.42 24.429-39 37-5.762 5.758-13.433 10.095-18 17 12.344 1.181 26.415 3.31 38 6 17.036 3.957 34.188 3.265 50 7 23.373 5.521 47.682 4.737 70 10 13.091 3.087 51.307 3.053 59 9 4.761 5.361 6.533 13.357 10 20 7.261 13.912 14.445 28.479 22 43 22.066 42.415 44.235 85.66 65 129 0.805-1.021 0.355-0.274 1-2 4.234-3.632 5.286-9.783 8-15 7.113-13.674 13.668-27.906 21-42l68-134c27.67-2.646 60.508-6.741 87-13 23.373-5.521 47.682-4.737 70-10 13.42-3.164 52.082-2.879 60-9-12.434-8.167-20.366-22.201-32-31-8.623-6.522-14.635-15.673-23-22-23.232-17.572-43.449-40.527-64-61-6.999-6.972-36.936-30.325-38-39 3.214-4.894 5.154-24.128 6-31z"  horiz-adv-x="1024" />

    
    <glyph glyph-name="arrowright" unicode="&#59245;" d="M624.981 384.133l-292.155-292.16c-12.28-12.27-12.28-32.186 0-44.457 12.27-12.28099999 32.186-12.281 44.457 0l314.388 314.388c12.28 12.27 12.28 32.186 0 44.457l-314.388 314.387c-6.136 6.14-14.183 9.211-22.228 9.211s-16.092-3.071-22.228-9.21099999c-12.28-12.27-12.28-32.186-1e-8-44.45700001l292.15500001-292.159z"  horiz-adv-x="1024" />

    
    <glyph glyph-name="list" unicode="&#58892;" d="M512-128C229.517241-128 0 101.51724100000001 0 384S229.517241 896 512 896 1024 666.482759 1024 384 794.482759-128 512-128z m-211.862069 635.586207c28.248276 0 52.965517 24.717241 52.965517 52.965517S328.386207 613.517241 300.137931 613.517241 247.172414 588.8 247.172414 560.5517239999999 271.889655 507.586207 300.137931 507.586207zM282.482759 401.655172c-21.186207 0-35.310345-14.124138-35.310345-35.310344s14.124138-35.310345 35.310345-35.310345h282.482758c21.186207 0 35.310345 14.124138 35.310345 35.310345s-14.124138 35.310345-35.310345 35.310344H282.482759z m0-176.551724c-21.186207 0-35.310345-14.124138-35.310345-35.310345s14.124138-35.310345 35.310345-35.310344h459.034482c21.186207 0 35.310345 14.124138 35.310345 35.310344s-14.124138 35.310345-35.310345 35.310345H282.482759z m229.517241 282.482759c28.248276 0 52.965517 24.717241 52.965517 52.965517S540.248276 613.517241 512 613.517241 459.034483 588.8 459.034483 560.5517239999999s24.717241-52.965517 52.965517-52.965517z m211.862069 0c28.248276 0 52.965517 24.717241 52.965517 52.965517S752.110345 613.517241 723.862069 613.517241 670.896552 588.8 670.896552 560.5517239999999s24.717241-52.965517 52.965517-52.965517z"  horiz-adv-x="1024" />

    
    <glyph glyph-name="mine1" unicode="&#59865;" d="M803.55100445-79.13813332999996H219.14168889c-53.59047111 0-97.39946667 43.80444445-97.39946667 97.39946666 0 174.76494222 141.67608889 316.43534222 316.43534223 316.43534222h145.87107555c174.76039111 0 316.43534222-141.67153778 316.43534222-316.43534222 0.46762667-54.06151111-43.34136889-97.39946667-96.93297777-97.39946666zM584.51512889 285.76426667H438.17756445c-147.73361778 0-267.96828445-119.76931555-267.96828445-267.96942222 0-27.03132445 21.90222222-48.46705778 48.46592-48.46705778h584.40931555c27.03132445 0 48.46705778 21.90222222 48.46705778 48.46705778 0.46648889 148.20124445-119.30737778 267.96942222-267.03644444 267.96942222z m-73.16821334 73.16935111c-134.68444445 0-243.27168 109.04917333-243.27168 243.26599111C268.07523555 736.41756445 376.66247111 845.93777778 511.34691555 845.93777778s243.27168-109.05372445 243.27168-243.27054223c-0.00113778-134.21795555-108.58723555-243.73361778-243.27168-243.73361777z m0 438.07061333c-107.65312 0-194.80462222-87.14695111-194.80462222-194.33699556 0-107.18776889 87.15150222-194.80007111 194.80462222-194.8000711s194.80007111 87.14581333 194.80007112 194.8000711c0 107.65312-87.14695111 194.33699555-194.80007112 194.33699556z m0 0"  horiz-adv-x="1024" />

    
    <glyph glyph-name="arrowleft" unicode="&#58880;" d="M399.018 383.86699999999996l292.15500001 292.16c12.28 12.27 12.28 32.186-1e-8 44.45700001-12.27 12.28099999-32.186 12.281-44.457 0l-314.388-314.38800001c-12.28-12.27-12.28-32.186 0-44.45699999l314.388-314.38700002c6.136-6.14 14.183-9.211 22.228-9.21099999s16.092 3.071 22.228 9.211c12.28 12.27 12.28 32.186 0 44.457l-292.15499999 292.159z"  horiz-adv-x="1024" />

    
    <glyph glyph-name="mine2" unicode="&#59086;" d="M507.20426667 359.80287999999996c133.23776 0 241.64864 106.78784 241.64352 238.10048 0 131.3024-108.40576 238.10048-241.64352 238.10048S265.56074667 729.16992 265.56074667 597.90336c0-131.2768 108.40576-238.10048 241.64352-238.10048z m99.57888-22.93248H425.72458667c-168.25344 0-305.10592-134.74816-305.10592-300.42624v-17.83296c0-86.61504 134.66112-86.61504 305.10592-86.61504h181.05856c163.7376 0 305.13152 0 305.13152 86.61504v17.83296c-0.00512 165.64224-136.87808 300.42624-305.13152 300.42624z"  horiz-adv-x="1024" />

    
    <glyph glyph-name="heart" unicode="&#58940;" d="M512 896C229.376 896 0 666.624 0 384s229.376-512 512-512 512 229.376 512 512S794.624 896 512 896z m272.896-603.648l-17.92-19.456L512 38.39999999999998 257.024 272.89599999999996l-17.92 19.456c-70.656 76.288-70.656 199.168 0 275.456 70.656 76.288 184.832 76.288 254.976 0L512 548.352l17.92 19.456c70.656 76.288 184.832 76.288 254.976 0 70.656-76.288 70.656-199.68 0-275.456z"  horiz-adv-x="1024" />

    
    <glyph glyph-name="arrowdown" unicode="&#58899;" d="M512.133 271.01800000000003l-292.16 292.15500001c-12.27 12.28-32.186 12.28-44.45700001-1e-8-12.28099999-12.27-12.281-32.186 0-44.457l314.38800001-314.388c12.27-12.28 32.186-12.28 44.45699999 0l314.38700002 314.388c6.14 6.136 9.211 14.183 9.21099999 22.228s-3.071 16.092-9.211 22.228c-12.27 12.28-32.186 12.28-44.457 0l-292.159-292.15499999z"  horiz-adv-x="1024" />

    
    <glyph glyph-name="ticket" unicode="&#58938;" d="M819.264 652.472a74.099 74.099 0 0 0-113.777 92.252L594.785 834 486.959 709.311a15.177 15.177 0 0 0 1.488-20.434 15.375 15.375 0 0 0-21.426-2.579L83.333 242.69600000000003 199.59 148.65999999999997a74.099 74.099 0 0 0 113.778-92.053L424.07-32.66999999999996l380.81 440.13-7.34 5.753a15.375 15.375 0 1 0 19.145 24.005l8.332-6.547 110.405 127.764zM512.155 298.345l-36.9-74.397-39.679 69.437-77.967 9.92 53.07 63.187-11.408 80.646 72.313-29.759 71.024 39.678-8.332-81.836 54.954-56.343z m48.507 331.312a15.375 15.375 0 0 0-21.625-2.48l-29.759 23.41a15.375 15.375 0 1 0 19.145 24.105l29.759-23.41a15.375 15.375 0 0 0 2.38-21.724z m72.214-59.517a15.375 15.375 0 0 0-21.625-2.48l-29.758 23.41a15.375 15.375 0 1 0 19.144 24.105l29.759-23.41a15.375 15.375 0 0 0 2.38-21.526z m72.115-59.517a15.375 15.375 0 0 0-21.625-2.48l-29.758 23.41a15.375 15.375 0 1 0 18.649 24.7l29.758-23.41a15.375 15.375 0 0 0 2.877-21.922z m72.214-59.517a15.375 15.375 0 0 0-21.624-2.48l-29.759 23.41a15.375 15.375 0 0 0 18.649 24.7l29.758-23.41a15.375 15.375 0 0 0 2.877-21.724zM1129.448 385.14a76.38 76.38 0 0 0-62.79 137.089l-60.807 133.22-76.678-32.14 66.758-55.847-93.045-109.115a15.772 15.772 0 0 0 7.44-7.44l17.061-35.412a15.871 15.871 0 1 0-28.667-13.392l-15.872 32.834-124.986-145.321-18.847-29.76 25.295-76.975-80.646 16.268-8.332-6.249L450.356-66l553.51 231.621-4.165 8.63a15.871 15.871 0 1 0 28.766 13.392l4.762-9.92 160.498 67.155z m-191.447-70.527l-17.062 35.313a15.871 15.871 0 0 0 28.668 13.392l17.062-35.215A15.871 15.871 0 1 0 938 314.712z m60.51-95.625a15.871 15.871 0 0 0-21.03 7.638l-17.062 35.413a15.871 15.871 0 0 0 28.668 13.392l16.764-35.314a15.871 15.871 0 0 0-7.34-21.129z"  horiz-adv-x="1263" />

    
    <glyph glyph-name="fork" unicode="&#59319;" d="M821.76 129.024c8.192-8.192 11.776-17.408 11.776-27.648 0-10.24-4.096-19.456-11.776-27.648s-17.408-11.776-27.648-11.776c-10.24 0-19.456 4.096-27.648 11.776L512 329.216l-254.976-254.976c-8.192-8.192-17.408-11.776-27.648-11.776-10.24 0-19.456 4.096-27.648 11.776s-11.776 17.408-11.776 27.648c0 10.24 4.096 19.968 11.776 28.672L456.192 384 202.24 638.976c-8.192 8.192-11.776 17.408-11.776 27.648 0 10.24 4.096 19.456 11.776 27.648s17.408 11.776 27.648 11.776c10.24 0 19.456-4.096 27.648-11.776L512 439.808l254.976 253.952c8.192 8.192 17.408 11.776 27.648 11.776 10.24 0 19.456-4.096 27.648-11.776s11.776-17.408 11.776-27.648c0-10.24-3.584-19.456-10.752-27.648L567.808 384l253.952-254.976z"  horiz-adv-x="1024" />

    
    <glyph glyph-name="set" unicode="&#58904;" d="M990.126 504.693l-79.272-46.152c4.446-24.238 7.362-48.998 7.362-74.547 0-25.545-2.916-50.305-7.36-74.54l79.272-46.147c32.38-18.85 43.477-60.604 24.78-93.253l-67.7-118.244c-18.694-32.647-60.103-43.833-92.486-24.987l-80.085 46.626c-37.419-32.118-79.954-58.368-127.23-75.243v-57.938c0-37.704-30.312-68.268-67.703-68.268H444.3c-37.39 0-67.703 30.566-67.703 68.268v57.938c-47.276 16.878-89.81 43.127-127.23 75.243l-80.085-46.626c-32.383-18.848-73.79-7.662-92.481 24.987L9.09 170.05600000000004c-18.694 32.647-7.6 74.401 24.781 93.253l79.272 46.148c-4.444 24.232-7.36 48.994-7.36 74.539 0 25.549 2.916 50.309 7.36 74.55l-79.272 46.147c-32.38 18.85-43.475 60.604-24.78 93.253l67.707 118.24c18.692 32.653 60.098 43.843 92.481 24.99l80.087-46.623c37.42 32.12 79.954 58.368 127.228 75.243V827.73c0 37.704 30.312 68.27 67.703 68.27h135.405c37.39 0 67.703-30.566 67.703-68.27v-57.934c47.274-16.877 89.809-43.123 127.228-75.243l80.087 46.622c32.383 18.854 73.792 7.664 92.486-24.99l67.7-118.239c18.697-32.647 7.6-74.403-24.78-93.253z m-50.774 88.678L905.5 652.495c-9.347 16.322-30.052 21.92-46.242 12.497l-94.054-54.76c-47.74 54.301-112.257 93.254-185.5 108.25v75.122c0 18.85-15.155 34.126-33.851 34.126h-67.705c-18.696 0-33.851-15.276-33.851-34.126v-75.123c-73.243-14.995-137.759-53.948-185.5-108.249l-94.054 54.76c-16.19 9.423-36.893 3.825-46.242-12.497L84.65 593.37c-9.348-16.322-3.8-37.202 12.39-46.627l94.431-54.972c-11.25-33.958-17.985-69.997-17.985-107.778 0-37.773 6.733-73.812 17.983-107.768L97.038 221.25c-16.19-9.427-21.738-30.303-12.39-46.627l33.85-59.118c9.35-16.33 30.053-21.924 46.243-12.493l94.05 54.756c47.743-54.301 112.26-93.254 185.504-108.245v-75.13c0-18.847 15.155-34.125 33.851-34.125h67.705c18.696 0 33.851 15.28 33.851 34.126v75.129c73.245 14.993 137.761 53.946 185.502 108.245l94.052-54.756c16.19-9.429 36.895-3.838 46.242 12.493l33.852 59.118c9.347 16.324 3.799 37.2-12.39 46.627l-94.432 54.976c11.25 33.954 17.983 69.995 17.983 107.768 0 37.78-6.733 73.816-17.983 107.774l94.431 54.974c16.192 9.427 21.738 30.307 12.393 46.63z m-427.35-380.033c-93.48 0-169.257 76.409-169.257 170.658 0 94.26 75.778 170.674 169.257 170.674 93.476 0 169.257-76.415 169.257-170.674-0.002-94.251-75.78-170.658-169.257-170.658z m0 273.06c-56.089 0-101.555-45.845-101.555-102.402 0-56.55 45.468-102.39 101.555-102.39 56.084 0 101.552 45.838 101.552 102.39 0 56.557-45.468 102.402-101.552 102.402z"  horiz-adv-x="1024" />

    
    <glyph glyph-name="search" unicode="&#58906;" d="M456.4 68.70000000000005c-40.6 0-81.3 6.6-119.6 19.6-54.1 18.3-102.1 48.3-142.8 88.9-35.4 35.4-62.8 76.6-81.4 122.6-18 44.4-27.1 91.3-27.1 139.4s9.1 95 27.1 139.4c18.6 46 46 87.2 81.4 122.6s76.6 62.8 122.6 81.4c44.4 18 91.3 27.1 139.4 27.1s95-9.1 139.4-27.1c46-18.6 87.2-46 122.6-81.4s62.8-76.6 81.4-122.6c18-44.4 27.1-91.3 27.1-139.4s-9.1-95-27.1-139.4c-18.6-46-46-87.2-81.4-122.6-9.8-9.8-25.6-9.8-35.4 0-9.8 9.8-9.8 25.6 0 35.4 60.6 60.6 93.9 141.1 93.9 226.7S743.2 605.5 682.6 666c-60.6 60.6-141.1 93.9-226.7 93.9S289.7 726.6 229.2 666c-125-125-125-328.4 0-453.4 69.6-69.6 165.6-103 263.4-91.8 18 2.1 36 5.7 53.4 10.8 13.3 3.9 27.1-3.7 31-17 3.9-13.3-3.7-27.1-17-31-20.1-5.9-40.9-10.1-61.7-12.4-13.8-1.7-27.9-2.5-41.9-2.5zM899.2-28.799999999999955c-6.4 0-12.8 2.4-17.7 7.3L682.7 177.29999999999995c-9.8 9.8-9.8 25.6 0 35.4 9.8 9.8 25.6 9.8 35.4 0l198.8-198.8c9.8-9.8 9.8-25.6 0-35.4-4.9-4.9-11.3-7.3-17.7-7.3z"  horiz-adv-x="1024" />

    
    <glyph glyph-name="douban" unicode="&#59120;" d="M354.35260062 513.7082887500001h311.96317032V357.72797344H354.35260062zM950.44905031 857.99968219H73.55094969c-19.63162969 0-35.54978531-15.9164625-35.54978531-35.54978531v-876.89810063c0-19.63162969 15.91900219-35.54978531 35.54978531-35.54978531h876.89810062c19.63162969 0 35.54978531 15.91900219 35.54978531 35.54978531V822.44905031c0 19.63162969-15.91815562 35.55063281-35.54978531 35.55063188zM247.57878406 671.35653469h528.01100625v-51.71686125H247.57878406v51.71686125z m471.28527281-105.09826688V306.84338436999997H301.80008094V566.25826781h417.06397594z m74.23816032-469.61734218H230.89693625v53.38987218h143.47252781l-50.88458906 90.91916063 57.55715812 43.37128031a449.92898625 449.92898625 0 0 0 7.50907594-19.18543688c2.22249656-6.10784437 4.72693312-12.50355469 7.509075-19.18543781a125.550315 125.550315 0 0 1 10.00335094-19.17527719c9.45894563-16.12728188 18.0771525-31.84731844 25.85800687-47.133015 7.78593469-15.29500969 12.79565344-25.16543531 15.01815094-29.6104275H576.228035c2.78214281 4.44499312 8.06872125 14.31457125 15.85042313 29.6104275 7.78085438 15.28569656 16.403295 31.00573219 25.85800687 47.133015a306.58345781 306.58345781 0 0 1 9.59271844 19.17527719c3.05900156 6.68272969 5.70144469 13.07759344 7.9197075 19.18543781 2.22673031 6.11885062 4.7320125 12.51286781 7.51330875 19.18543688l57.55715906-43.37128031-50.88543562-90.91916063h143.4674475v-53.38987219z"  horiz-adv-x="1024" />

    
    <glyph glyph-name="success" unicode="&#58960;" d="M511.595 896C229.053 896 0 666.9449999999999 0 384.405s229.053-511.595 511.595-511.595c282.54 0 511.595 229.056 511.595 511.595S794.136 896 511.595 896m0-950.615c-242.093 0-439.018 196.954-439.018 439.018 0.002 242.093 196.948 439.02 439.018 439.02 242.062 0 439.018-196.948 439.018-439.018 0.002-242.093-196.925-439.02-439.018-439.02m-83.447 326.54L283.02 388.022l-65.314-43.545 246.726-253.992S609.557 409.768 805.49 562.1759999999999l-21.772 29.034s-304.767-217.683-355.57-319.284m0 0z"  horiz-adv-x="1024" />

    
    <glyph glyph-name="QQ" unicode="&#58920;" d="M509.5 891C228.1 891 0 662.9 0 381.5S228.1-128 509.5-128 1019 100.10000000000002 1019 381.5 790.9 891 509.5 891z m287.8-665.6c-21.6-18.5-49.7 61-53.7 48.8-9.8-29.8-14.4-49.7-43.4-82.1-1.5-1.7 33.5-14.4 43.4-41.4 9.5-25.9 28-66.9-93-79.8-71-7.5-122.3 37.8-127.5 37.4-9.5-0.8-5.3 0-15.5 0-8.3 0-8.9-0.6-16.7 0-2.2 0.2-25.8-37.4-131.3-37.4-81.8 0-103 51.5-86.6 79.8 16.5 28.3 43.9 36.6 40 41.1-19.1 22.1-32.2 45.7-40 67-1.9 5.3-3.6 10.5-4.9 15.5-3 11.4-25.8-66.9-50.2-48.8-24.5 18.1-22.3 64.1-6.4 108.1 16 44.4 56.2 87.2 56.6 96.6 1.6 35.1-3.5 40.9 0 50.2 7.7 20.7 17.1 12.7 17.1 23.5 0 135.1 100.4 244.6 224.2 244.6S733.6 639 733.6 503.9c0-5.2 13.5 0 19.9-23.5 1.3-4.9 2.2-23.6 0.7-50.2-0.7-12.8 34.1-28.4 52.1-96.6 18.1-68.3 0.1-100.5-9-108.2z"  horiz-adv-x="1024" />

    
    <glyph glyph-name="wechat" unicode="&#58987;" d="M814.409357 596.584795h41.918128c-35.929825 173.660819-221.567251 299.415205-425.16959 299.415205C191.625731 890.011696 0 728.327485 0 530.71345c0-119.766082 65.871345-215.578947 173.660819-287.438596l-41.918129-125.754386 149.707602 71.859649c53.894737-11.976608 95.812865-23.953216 149.707603-23.953216h41.918128c-5.988304 29.94152-11.976608 59.883041-11.976608 89.824561-11.976608 185.637427 149.707602 341.333333 353.309942 341.333333z m-233.54386 119.766082c35.929825 0 65.871345-29.94152 65.871345-65.871345s-29.94152-65.871345-65.871345-65.871345c-35.929825 0-65.871345 29.94152-65.871345 65.871345s29.94152 65.871345 65.871345 65.871345zM287.438596 584.608187c-41.918129 0-65.871345 29.94152-65.871345 65.871345s29.94152 65.871345 65.871345 65.871345c35.929825 0 65.871345-29.94152 65.871346-65.871345-5.988304-35.929825-29.94152-65.871345-65.871346-65.871345zM1197.660819 261.23976600000003c0 167.672515-167.672515 305.403509-359.298246 305.403509-203.602339 0-359.298246-137.730994-359.298246-305.403509s161.684211-305.403509 359.298246-305.403509c41.918129 0 83.836257 11.976608 125.754386 23.953217l113.777778-65.871345-29.941521 107.789473c83.836257 59.883041 149.707602 143.719298 149.707603 239.532164z m-473.076024 47.906433c-23.953216 0-47.906433 17.964912-47.906432 47.906433 0 23.953216 17.964912 47.906433 47.906432 47.906432s47.906433-17.964912 47.906433-47.906432c0-23.953216-23.953216-47.906433-47.906433-47.906433z m233.54386 0c-23.953216 0-47.906433 17.964912-47.906433 47.906433 0 23.953216 17.964912 47.906433 47.906433 47.906432 23.953216 0 47.906433-17.964912 47.906433-47.906432s-23.953216-47.906433-47.906433-47.906433z"  horiz-adv-x="1204" />

    
    <glyph glyph-name="star" unicode="&#59866;" d="M452.089004 763.385657l-98.304934-200.876031-220.428341-32.242331c-75.150584-11.151991-90.173742-61.994959-36.954657-114.690112L255.458671 259.960962l-37.564547-221.332944c-12.534478-75.643817 31.30089-105.398492 97.068779-70.675666l196.536189 105.965404V814.457846h-0.179079c-21.409612-0.338714-42.719964-17.470907-59.231009-51.072189zM890.457006 529.868205l-220.427318 32.242332-98.32233 200.87603c-16.996093 34.594913-38.743396 51.41602-60.386322 51.073212h0.179079v-740.540089l0.093121 0.050142 197.257619-105.388259c67.63133-35.966143 109.585861-3.106758 97.070826 70.671573L768.349971 259.561873l158.419056 154.99098 0.644683 0.62524c54.471612 52.695153 36.941354 104.148012-36.956704 114.690112z"  horiz-adv-x="1024" />

    


  </font>
</defs>
</svg>
